<svg xmlns="http://www.w3.org/2000/svg" xmlns:xlink="http://www.w3.org/1999/xlink" viewBox="0 0 660 460">
    <defs>
        <linearGradient id="prefix__c" x1="-3748.62" x2="-3747.62" y1="2002.89" y2="2002.89" gradientTransform="matrix(448.01 0 0 -392.84 1679444.8 787013.51)" gradientUnits="userSpaceOnUse">
            <stop offset="0" stop-color="#0585ec" stop-opacity=".32"/>
            <stop offset=".87" stop-color="#f6fbfe" stop-opacity=".32"/>
            <stop offset="1" stop-color="#fff" stop-opacity=".32"/>
        </linearGradient>
        <linearGradient id="prefix__d" x1="-3748.62" x2="-3747.62" y1="2002.89" y2="2002.89" gradientTransform="matrix(448.01 0 0 -392.84 1679912.8 787013.51)" xlink:href="#prefix__c"/>
        <linearGradient id="prefix__e" x1="-3667.74" x2="-3666.73" y1="1881.26" y2="1881.26" gradientTransform="matrix(42.27 0 0 -23.2 155621.64 43893.66)" gradientUnits="userSpaceOnUse">
            <stop offset="0"/>
            <stop offset="1" stop-opacity="0"/>
        </linearGradient>
        <linearGradient id="prefix__f" x1="-3249.02" x2="-3249.01" y1="1616.37" y2="1616.35" gradientTransform="matrix(8.29 0 0 -10.42 27901.15 18122.96)" xlink:href="#prefix__e"/>
        <linearGradient id="prefix__g" x1="-3685.48" x2="-3684.48" y1="1845.31" y2="1845.31" gradientTransform="matrix(52.49 0 0 -18.12 193950.75 33677.63)" xlink:href="#prefix__e"/>
        <linearGradient id="prefix__h" x1="-3573.22" x2="-3572.91" y1="1785.61" y2="1784.6" gradientTransform="matrix(27.03 0 0 -37.01 98375.19 71575.02)" gradientUnits="userSpaceOnUse">
            <stop offset="0" stop-color="#ffd1ae"/>
            <stop offset="1" stop-color="#f9ac78"/>
        </linearGradient>
        <clipPath id="prefix__a">
            <path d="M0 0H660V460H0z" class="prefix__a"/>
        </clipPath>
        <clipPath id="prefix__b">
            <path d="M27.5 0H659.5V392.9H27.5z" class="prefix__a"/>
        </clipPath>
        <style>
            .prefix__a,.prefix__n,.prefix__o,.prefix__p,.prefix__z{fill:none}.prefix__aa{isolation:isolate}.prefix__f{fill:#62b4f8}.prefix__g{fill:#fff}.prefix__l{fill:#f0f2f5}.prefix__n{stroke:#82d67c}.prefix__n,.prefix__o,.prefix__p{stroke-linecap:round;stroke-linejoin:round;stroke-width:1.88px}.prefix__o{stroke:#e2e2e2}.prefix__p{stroke:#57b1f5}.prefix__t{fill:#fcd2b1}.prefix__u{fill:#01384f}.prefix__v{fill:#ffe3ca}.prefix__w{fill:#0b4870}.prefix__x{fill:#ffbe55}.prefix__y{fill:#368bee}.prefix__z{stroke:#fff;stroke-width:.94px}.prefix__an,.prefix__z{stroke-miterlimit:10}.prefix__aa{opacity:.2}.prefix__ab{fill:#e3e5e8}.prefix__an{fill:#4eadff}.prefix__af{fill:#2173b9}.prefix__ag{fill:#facbb6}.prefix__ah{fill:#f45656}.prefix__ak{fill:#2c0997}.prefix__an{stroke:#f0f2f5;stroke-width:2px}
        </style>
    </defs>
    <g clip-path="url(#prefix__a)">
        <g clip-path="url(#prefix__b)">
            <path d="M471.1 392.8v-4.4h4.4v4.4zm-17.7 0v-4.4h4.4v4.4zm-17.8 0v-4.4h4.4v4.4zm-17.7 0v-4.4h4.4v4.4zm-17.8 0v-4.4h4.4v4.4zm-17.7 0v-4.4h4.4v4.4zm-17.7 0v-4.4h4.4v4.4zm-17.8 0v-4.4h4.4v4.4zm-17.7 0v-4.4h4.4v4.4zm-17.8 0v-4.4h4.4v4.4zm-17.7 0v-4.4h4.4v4.4zm-17.8 0v-4.4h4.4v4.4zm-17.7 0v-4.4h4.4v4.4zm-17.7 0v-4.4h4.4v4.4zm-17.8 0v-4.4h4.4v4.4zm-17.7 0v-4.4h4.4v4.4zm-17.8 0v-4.4h4.4v4.4zm-17.7 0v-4.4h4.4v4.4zm-17.8 0v-4.4h4.4v4.4zm-17.7 0v-4.4h4.4v4.4zm-17.7 0v-4.4h4.4v4.4zm-17.8 0v-4.4h4.5v4.4zm-17.7 0v-4.4h4.4v4.4zm-17.8 0v-4.4h4.4v4.4zm-17.7 0v-4.4h4.4v4.4zm-17.8 0v-4.4H32v4.4zm443.6-17.6v-4.4h4.4v4.4zm-17.7 0v-4.4h4.4v4.4zm-17.8 0v-4.4h4.4v4.4zm-17.7 0v-4.4h4.4v4.4zm-17.8 0v-4.4h4.4v4.4zm-17.7 0v-4.4h4.4v4.4zm-17.7 0v-4.4h4.4v4.4zm-17.8 0v-4.4h4.4v4.4zm-17.7 0v-4.4h4.4v4.4zm-17.8 0v-4.4h4.4v4.4zm-17.7 0v-4.4h4.4v4.4zm-17.8 0v-4.4h4.4v4.4zm-17.7 0v-4.4h4.4v4.4zm-17.7 0v-4.4h4.4v4.4zm-17.8 0v-4.4h4.4v4.4zm-17.7 0v-4.4h4.4v4.4zm-17.8 0v-4.4h4.4v4.4zm-17.7 0v-4.4h4.4v4.4zm-17.8 0v-4.4h4.4v4.4zm-17.7 0v-4.4h4.4v4.4zm-17.7 0v-4.4h4.4v4.4zm-17.8 0v-4.4h4.4v4.4zm-17.7 0v-4.4h4.4v4.4zm-17.8 0v-4.4h4.4v4.4zm-17.7 0v-4.4h4.4v4.4zm-17.8 0v-4.4H32v4.4zm443.6-17.7v-4.4h4.4v4.4zm-17.7 0v-4.4h4.4v4.4zm-17.8 0v-4.4h4.4v4.4zm-17.7 0v-4.4h4.4v4.4zm-17.8 0v-4.4h4.4v4.4zm-17.7 0v-4.4h4.4v4.4zm-17.7 0v-4.4h4.4v4.4zm-17.8 0v-4.4h4.4v4.4zm-17.7 0v-4.4h4.4v4.4zm-17.8 0v-4.4h4.4v4.4zm-17.7 0v-4.4h4.4v4.4zm-17.8 0v-4.4h4.4v4.4zm-17.7 0v-4.4h4.4v4.4zm-17.7 0v-4.4h4.4v4.4zm-17.8 0v-4.4h4.4v4.4zm-17.7 0v-4.4h4.4v4.4zm-17.8 0v-4.4h4.4v4.4zm-17.7 0v-4.4h4.4v4.4zm-17.8 0v-4.4h4.4v4.4zm-17.7 0v-4.4h4.4v4.4zm-17.7 0v-4.4h4.4v4.4zm-17.8 0v-4.4h4.4v4.4zm-17.7 0v-4.4h4.4v4.4zm-17.8 0v-4.4h4.4v4.4zm-17.7 0v-4.4h4.4v4.4zm-17.8 0v-4.4H32v4.4zm443.6-17.6v-4.4h4.4v4.4zm-17.7 0v-4.4h4.4v4.4zm-17.8 0v-4.4h4.4v4.4zm-17.7 0v-4.4h4.4v4.4zm-17.8 0v-4.4h4.4v4.4zm-17.7 0v-4.4h4.4v4.4zm-17.7 0v-4.4h4.4v4.4zm-17.8 0v-4.4h4.4v4.4zm-17.7 0v-4.4h4.4v4.4zm-17.8 0v-4.4h4.4v4.4zm-17.7 0v-4.4h4.4v4.4zm-17.8 0v-4.4h4.4v4.4zm-17.7 0v-4.4h4.4v4.4zm-17.7 0v-4.4h4.4v4.4zm-17.8 0v-4.4h4.4v4.4zm-17.7 0v-4.4h4.4v4.4zm-17.8 0v-4.4h4.4v4.4zm-17.7 0v-4.4h4.4v4.4zm-17.8 0v-4.4h4.4v4.4zm-17.7 0v-4.4h4.4v4.4zm-17.7 0v-4.4h4.4v4.4zm-17.8 0v-4.4h4.4v4.4zm-17.7 0v-4.4h4.4v4.4zm-17.8 0v-4.4h4.4v4.4zm-17.7 0v-4.4h4.4v4.4zm-17.8 0v-4.4H32v4.4zm443.6-17.7v-4.4h4.4v4.4zm-17.7 0v-4.4h4.4v4.4zm-17.8 0v-4.4h4.4v4.4zm-17.7 0v-4.4h4.4v4.4zm-17.8 0v-4.4h4.4v4.4zm-17.7 0v-4.4h4.4v4.4zm-17.7 0v-4.4h4.4v4.4zm-17.8 0v-4.4h4.4v4.4zm-17.7 0v-4.4h4.4v4.4zm-17.8 0v-4.4h4.4v4.4zm-17.7 0v-4.4h4.4v4.4zm-17.8 0v-4.4h4.4v4.4zm-17.7 0v-4.4h4.4v4.4zm-17.7 0v-4.4h4.4v4.4zm-17.8 0v-4.4h4.4v4.4zm-17.7 0v-4.4h4.4v4.4zm-17.8 0v-4.4h4.4v4.4zm-17.7 0v-4.4h4.4v4.4zm-17.8 0v-4.4h4.4v4.4zm-17.7 0v-4.4h4.4v4.4zm-17.7 0v-4.4h4.4v4.4zm-17.8 0v-4.4h4.4v4.4zm-17.7 0v-4.4h4.4v4.4zm-17.8 0v-4.4h4.4v4.4zm-17.7 0v-4.4h4.4v4.4zm-17.8 0v-4.4H32v4.4zm443.6-17.6v-4.4h4.4v4.4zm-17.7 0v-4.4h4.4v4.4zm-17.8 0v-4.4h4.4v4.4zm-17.7 0v-4.4h4.4v4.4zm-17.8 0v-4.4h4.4v4.4zm-17.7 0v-4.4h4.4v4.4zm-17.7 0v-4.4h4.4v4.4zm-17.8 0v-4.4h4.4v4.4zm-17.7 0v-4.4h4.4v4.4zm-17.8 0v-4.4h4.4v4.4zm-17.7 0v-4.4h4.4v4.4zm-17.8 0v-4.4h4.4v4.4zm-17.7 0v-4.4h4.4v4.4zm-17.7 0v-4.4h4.4v4.4zm-17.8 0v-4.4h4.4v4.4zm-17.7 0v-4.4h4.4v4.4zm-17.8 0v-4.4h4.4v4.4zm-17.7 0v-4.4h4.4v4.4zm-17.8 0v-4.4h4.4v4.4zm-17.7 0v-4.4h4.4v4.4zm-17.7 0v-4.4h4.4v4.4zm-17.8 0v-4.4h4.4v4.4zm-17.7 0v-4.4h4.4v4.4zm-17.8 0v-4.4h4.4v4.4zm-17.7 0v-4.4h4.4v4.4zm-17.8 0v-4.4H32v4.4zm443.6-17.7v-4.4h4.4v4.4zm-17.7 0v-4.4h4.4v4.4zm-17.8 0v-4.4h4.4v4.4zm-17.7 0v-4.4h4.4v4.4zm-17.8 0v-4.4h4.4v4.4zm-17.7 0v-4.4h4.4v4.4zm-17.7 0v-4.4h4.4v4.4zm-17.8 0v-4.4h4.4v4.4zm-17.7 0v-4.4h4.4v4.4zm-17.8 0v-4.4h4.4v4.4zm-17.7 0v-4.4h4.4v4.4zm-17.8 0v-4.4h4.4v4.4zm-17.7 0v-4.4h4.4v4.4zm-17.7 0v-4.4h4.4v4.4zm-17.8 0v-4.4h4.4v4.4zm-17.7 0v-4.4h4.4v4.4zm-17.8 0v-4.4h4.4v4.4zm-17.7 0v-4.4h4.4v4.4zm-17.8 0v-4.4h4.4v4.4zm-17.7 0v-4.4h4.4v4.4zm-17.7 0v-4.4h4.4v4.4zm-17.8 0v-4.4h4.4v4.4zm-17.7 0v-4.4h4.4v4.4zm-17.8 0v-4.4h4.4v4.4zm-17.7 0v-4.4h4.4v4.4zm-17.8 0v-4.4H32v4.4zm443.6-17.6v-4.4h4.4v4.4zm-17.7 0v-4.4h4.4v4.4zm-17.8 0v-4.4h4.4v4.4zm-17.7 0v-4.4h4.4v4.4zm-17.8 0v-4.4h4.4v4.4zm-17.7 0v-4.4h4.4v4.4zm-17.7 0v-4.4h4.4v4.4zm-17.8 0v-4.4h4.4v4.4zm-17.7 0v-4.4h4.4v4.4zm-17.8 0v-4.4h4.4v4.4zm-17.7 0v-4.4h4.4v4.4zm-17.8 0v-4.4h4.4v4.4zm-17.7 0v-4.4h4.4v4.4zm-17.7 0v-4.4h4.4v4.4zm-17.8 0v-4.4h4.4v4.4zm-17.7 0v-4.4h4.4v4.4zm-17.8 0v-4.4h4.4v4.4zm-17.7 0v-4.4h4.4v4.4zm-17.8 0v-4.4h4.4v4.4zm-17.7 0v-4.4h4.4v4.4zm-17.7 0v-4.4h4.4v4.4zm-17.8 0v-4.4h4.4v4.4zm-17.7 0v-4.4h4.4v4.4zm-17.8 0v-4.4h4.4v4.4zm-17.7 0v-4.4h4.4v4.4zm-17.8 0v-4.4H32v4.4zm443.6-17.7v-4.4h4.4v4.4zm-17.7 0v-4.4h4.4v4.4zm-17.8 0v-4.4h4.4v4.4zm-17.7 0v-4.4h4.4v4.4zm-17.8 0v-4.4h4.4v4.4zm-17.7 0v-4.4h4.4v4.4zm-17.7 0v-4.4h4.4v4.4zm-17.8 0v-4.4h4.4v4.4zm-17.7 0v-4.4h4.4v4.4zm-17.8 0v-4.4h4.4v4.4zm-17.7 0v-4.4h4.4v4.4zm-17.8 0v-4.4h4.4v4.4zm-17.7 0v-4.4h4.4v4.4zm-17.7 0v-4.4h4.4v4.4zm-17.8 0v-4.4h4.4v4.4zm-17.7 0v-4.4h4.4v4.4zm-17.8 0v-4.4h4.4v4.4zm-17.7 0v-4.4h4.4v4.4zm-17.8 0v-4.4h4.4v4.4zm-17.7 0v-4.4h4.4v4.4zm-17.7 0v-4.4h4.4v4.4zm-17.8 0v-4.4h4.4v4.4zm-17.7 0v-4.4h4.4v4.4zm-17.8 0v-4.4h4.4v4.4zm-17.7 0v-4.4h4.4v4.4zm-17.8 0v-4.4H32v4.4zm443.6-17.7v-4.4h4.4v4.4zm-17.7 0v-4.4h4.4v4.4zm-17.8 0v-4.4h4.4v4.4zm-17.7 0v-4.4h4.4v4.4zm-17.8 0v-4.4h4.4v4.4zm-17.7 0v-4.4h4.4v4.4zm-17.7 0v-4.4h4.4v4.4zm-17.8 0v-4.4h4.4v4.4zm-17.7 0v-4.4h4.4v4.4zm-17.8 0v-4.4h4.4v4.4zm-17.7 0v-4.4h4.4v4.4zm-17.8 0v-4.4h4.4v4.4zm-17.7 0v-4.4h4.4v4.4zm-17.7 0v-4.4h4.4v4.4zm-17.8 0v-4.4h4.4v4.4zm-17.7 0v-4.4h4.4v4.4zm-17.8 0v-4.4h4.4v4.4zm-17.7 0v-4.4h4.4v4.4zm-17.8 0v-4.4h4.4v4.4zm-17.7 0v-4.4h4.4v4.4zm-17.7 0v-4.4h4.4v4.4zm-17.8 0v-4.4h4.4v4.4zm-17.7 0v-4.4h4.4v4.4zm-17.8 0v-4.4h4.4v4.4zm-17.7 0v-4.4h4.4v4.4zm-17.8 0v-4.4H32v4.4zm443.6-17.6v-4.4h4.4v4.4zm-17.7 0v-4.4h4.4v4.4zm-17.8 0v-4.4h4.4v4.4zm-17.7 0v-4.4h4.4v4.4zm-17.8 0v-4.4h4.4v4.4zm-17.7 0v-4.4h4.4v4.4zm-17.7 0v-4.4h4.4v4.4zm-17.8 0v-4.4h4.4v4.4zm-17.7 0v-4.4h4.4v4.4zm-17.8 0v-4.4h4.4v4.4zm-17.7 0v-4.4h4.4v4.4zm-17.8 0v-4.4h4.4v4.4zm-17.7 0v-4.4h4.4v4.4zm-17.7 0v-4.4h4.4v4.4zm-17.8 0v-4.4h4.4v4.4zm-17.7 0v-4.4h4.4v4.4zm-17.8 0v-4.4h4.4v4.4zm-17.7 0v-4.4h4.4v4.4zm-17.8 0v-4.4h4.4v4.4zm-17.7 0v-4.4h4.4v4.4zm-17.7 0v-4.4h4.4v4.4zm-17.8 0v-4.4h4.4v4.4zm-17.7 0v-4.4h4.4v4.4zm-17.8 0v-4.4h4.4v4.4zm-17.7 0v-4.4h4.4v4.4zm-17.8 0v-4.4H32v4.4zm443.6-17.7v-4.4h4.4v4.4zm-17.7 0v-4.4h4.4v4.4zm-17.8 0v-4.4h4.4v4.4zm-17.7 0v-4.4h4.4v4.4zm-17.8 0v-4.4h4.4v4.4zm-17.7 0v-4.4h4.4v4.4zm-17.7 0v-4.4h4.4v4.4zm-17.8 0v-4.4h4.4v4.4zm-17.7 0v-4.4h4.4v4.4zm-17.8 0v-4.4h4.4v4.4zm-17.7 0v-4.4h4.4v4.4zm-17.8 0v-4.4h4.4v4.4zm-17.7 0v-4.4h4.4v4.4zm-17.7 0v-4.4h4.4v4.4zm-17.8 0v-4.4h4.4v4.4zm-17.7 0v-4.4h4.4v4.4zm-17.8 0v-4.4h4.4v4.4zm-17.7 0v-4.4h4.4v4.4zm-17.8 0v-4.4h4.4v4.4zm-17.7 0v-4.4h4.4v4.4zm-17.7 0v-4.4h4.4v4.4zm-17.8 0v-4.4h4.4v4.4zm-17.7 0v-4.4h4.4v4.4zm-17.8 0v-4.4h4.4v4.4zm-17.7 0v-4.4h4.4v4.4zm-17.8 0v-4.4H32v4.4zM471.1 181v-4.4h4.4v4.4zm-17.7 0v-4.4h4.4v4.4zm-17.8 0v-4.4h4.4v4.4zm-17.7 0v-4.4h4.4v4.4zm-17.8 0v-4.4h4.4v4.4zm-17.7 0v-4.4h4.4v4.4zm-17.7 0v-4.4h4.4v4.4zm-17.8 0v-4.4h4.4v4.4zm-17.7 0v-4.4h4.4v4.4zm-17.8 0v-4.4h4.4v4.4zm-17.7 0v-4.4h4.4v4.4zm-17.8 0v-4.4h4.4v4.4zm-17.7 0v-4.4h4.4v4.4zm-17.7 0v-4.4h4.4v4.4zm-17.8 0v-4.4h4.4v4.4zm-17.7 0v-4.4h4.4v4.4zm-17.7 0v-4.4h4.4v4.4zm-17.8 0v-4.4h4.4v4.4zm-17.7 0v-4.4h4.4v4.4zm-17.8 0v-4.4h4.4v4.4zm-17.7 0v-4.4h4.4v4.4zm-17.8 0v-4.4h4.4v4.4zm-17.7 0v-4.4h4.4v4.4zM63 181v-4.4h4.4v4.4zm-17.7 0v-4.4h4.4v4.4zm-17.8 0v-4.4H32v4.4zm443.6-17.7v-4.4h4.4v4.4zm-17.7 0v-4.4h4.4v4.4zm-17.8 0v-4.4h4.4v4.4zm-17.7 0v-4.4h4.4v4.4zm-17.8 0v-4.4h4.4v4.4zm-17.7 0v-4.4h4.4v4.4zm-17.8 0v-4.4h4.4v4.4zm-17.7 0v-4.4h4.4v4.4zm-17.7 0v-4.4h4.4v4.4zm-17.8 0v-4.4h4.4v4.4zm-17.7 0v-4.4h4.4v4.4zm-17.8 0v-4.4h4.4v4.4zm-17.7 0v-4.4h4.4v4.4zm-17.8 0v-4.4h4.4v4.4zm-17.7 0v-4.4h4.4v4.4zm-17.7 0v-4.4h4.4v4.4zm-17.8 0v-4.4h4.4v4.4zm-17.7 0v-4.4h4.4v4.4zm-17.8 0v-4.4h4.4v4.4zm-17.7 0v-4.4h4.4v4.4zm-17.7 0v-4.4h4.4v4.4zm-17.8 0v-4.4h4.4v4.4zm-17.7 0v-4.4h4.4v4.4zm-17.8 0v-4.4h4.4v4.4zm-17.7 0v-4.4h4.4v4.4zm-17.8 0v-4.4H32v4.4zm443.6-17.6v-4.4h4.4v4.4zm-17.7 0v-4.4h4.4v4.4zm-17.8 0v-4.4h4.4v4.4zm-17.7 0v-4.4h4.4v4.4zm-17.8 0v-4.4h4.4v4.4zm-17.7 0v-4.4h4.4v4.4zm-17.8 0v-4.4h4.4v4.4zm-17.7 0v-4.4h4.4v4.4zm-17.7 0v-4.4h4.4v4.4zm-17.8 0v-4.4h4.4v4.4zm-17.7 0v-4.4h4.4v4.4zm-17.8 0v-4.4h4.4v4.4zm-17.7 0v-4.4h4.4v4.4zm-17.8 0v-4.4h4.4v4.4zm-17.7 0v-4.4h4.4v4.4zm-17.7 0v-4.4h4.4v4.4zm-17.8 0v-4.4h4.4v4.4zm-17.7 0v-4.4h4.4v4.4zm-17.8 0v-4.4h4.4v4.4zm-17.7 0v-4.4h4.4v4.4zm-17.7 0v-4.4h4.4v4.4zm-17.8 0v-4.4h4.4v4.4zm-17.7 0v-4.4h4.4v4.4zm-17.8 0v-4.4h4.4v4.4zm-17.7 0v-4.4h4.4v4.4zm-17.8 0v-4.4H32v4.4zM471.1 128v-4.4h4.4v4.4zm-17.7 0v-4.4h4.4v4.4zm-17.8 0v-4.4h4.4v4.4zm-17.7 0v-4.4h4.4v4.4zm-17.8 0v-4.4h4.4v4.4zm-17.7 0v-4.4h4.4v4.4zm-17.8 0v-4.4h4.4v4.4zm-17.7 0v-4.4h4.4v4.4zm-17.7 0v-4.4h4.4v4.4zm-17.8 0v-4.4h4.4v4.4zm-17.7 0v-4.4h4.4v4.4zm-17.8 0v-4.4h4.4v4.4zm-17.7 0v-4.4h4.4v4.4zm-17.8 0v-4.4h4.4v4.4zm-17.7 0v-4.4h4.4v4.4zm-17.7 0v-4.4h4.4v4.4zm-17.7 0v-4.4h4.4v4.4zm-17.8 0v-4.4h4.4v4.4zm-17.7 0v-4.4h4.4v4.4zm-17.8 0v-4.4h4.4v4.4zm-17.7 0v-4.4h4.4v4.4zm-17.8 0v-4.4h4.4v4.4zm-17.7 0v-4.4h4.4v4.4zM63 128v-4.4h4.4v4.4zm-17.7 0v-4.4h4.4v4.4zm-17.8 0v-4.4H32v4.4zm443.6-17.7v-4.4h4.4v4.4zm-17.7 0v-4.4h4.4v4.4zm-17.8 0v-4.4h4.4v4.4zm-17.7 0v-4.4h4.4v4.4zm-17.8 0v-4.4h4.4v4.4zm-17.7 0v-4.4h4.4v4.4zm-17.8 0v-4.4h4.4v4.4zm-17.7 0v-4.4h4.4v4.4zm-17.7 0v-4.4h4.4v4.4zm-17.8 0v-4.4h4.4v4.4zm-17.7 0v-4.4h4.4v4.4zm-17.8 0v-4.4h4.4v4.4zm-17.7 0v-4.4h4.4v4.4zm-17.8 0v-4.4h4.4v4.4zm-17.7 0v-4.4h4.4v4.4zm-17.7 0v-4.4h4.4v4.4zm-17.8 0v-4.4h4.4v4.4zm-17.7 0v-4.4h4.4v4.4zm-17.8 0v-4.4h4.4v4.4zm-17.7 0v-4.4h4.4v4.4zm-17.8 0v-4.4h4.4v4.4zm-17.7 0v-4.4h4.4v4.4zm-17.7 0v-4.4h4.4v4.4zm-17.8 0v-4.4h4.4v4.4zm-17.7 0v-4.4h4.4v4.4zm-17.8 0v-4.4H32v4.4zm443.6-17.6v-4.4h4.4v4.4zm-17.7 0v-4.4h4.4v4.4zm-17.8 0v-4.4h4.4v4.4zm-17.7 0v-4.4h4.4v4.4zm-17.8 0v-4.4h4.4v4.4zm-17.7 0v-4.4h4.4v4.4zm-17.8 0v-4.4h4.4v4.4zm-17.7 0v-4.4h4.4v4.4zm-17.7 0v-4.4h4.4v4.4zm-17.8 0v-4.4h4.4v4.4zm-17.7 0v-4.4h4.4v4.4zm-17.8 0v-4.4h4.4v4.4zm-17.7 0v-4.4h4.4v4.4zm-17.8 0v-4.4h4.4v4.4zm-17.7 0v-4.4h4.4v4.4zm-17.7 0v-4.4h4.4v4.4zm-17.8 0v-4.4h4.4v4.4zm-17.7 0v-4.4h4.4v4.4zm-17.8 0v-4.4h4.4v4.4zm-17.7 0v-4.4h4.4v4.4zm-17.8 0v-4.4h4.4v4.4zm-17.7 0v-4.4h4.4v4.4zm-17.7 0v-4.4h4.4v4.4zm-17.8 0v-4.4h4.4v4.4zm-17.7 0v-4.4h4.4v4.4zm-17.8 0v-4.4H32v4.4zM471.1 75v-4.4h4.4V75zm-17.7 0v-4.4h4.4V75zm-17.8 0v-4.4h4.4V75zm-17.7 0v-4.4h4.4V75zm-17.8 0v-4.4h4.4V75zm-17.7 0v-4.4h4.4V75zm-17.8 0v-4.4h4.4V75zm-17.7 0v-4.4h4.4V75zm-17.7 0v-4.4h4.4V75zm-17.8 0v-4.4h4.4V75zm-17.7 0v-4.4h4.4V75zm-17.8 0v-4.4h4.4V75zm-17.7 0v-4.4h4.4V75zm-17.8 0v-4.4h4.4V75zm-17.7 0v-4.4h4.4V75zM205 75v-4.4h4.4V75zm-17.7 0v-4.4h4.4V75zm-17.8 0v-4.4h4.4V75zm-17.7 0v-4.4h4.4V75zM134 75v-4.4h4.4V75zm-17.7 0v-4.4h4.4V75zm-17.8 0v-4.4h4.4V75zm-17.7 0v-4.4h4.4V75zM63 75v-4.4h4.4V75zm-17.7 0v-4.4h4.4V75zm-17.8 0v-4.4H32V75zm443.6-17.6V53h4.4v4.4zm-17.7 0V53h4.4v4.4zm-17.8 0V53h4.4v4.4zm-17.7 0V53h4.4v4.4zm-17.8 0V53h4.4v4.4zm-17.7 0V53h4.4v4.4zm-17.8 0V53h4.4v4.4zm-17.7 0V53h4.4v4.4zm-17.7 0V53h4.4v4.4zm-17.8 0V53h4.4v4.4zm-17.7 0V53h4.4v4.4zm-17.8 0V53h4.4v4.4zm-17.7 0V53h4.4v4.4zm-17.8 0V53h4.4v4.4zm-17.7 0V53h4.4v4.4zm-17.7 0V53h4.4v4.4zm-17.8 0V53h4.4v4.4zm-17.7 0V53h4.4v4.4zm-17.8 0V53h4.4v4.4zm-17.7 0V53h4.4v4.4zm-17.8 0V53h4.4v4.4zm-17.7 0V53h4.4v4.4zm-17.7 0V53h4.4v4.4zm-17.8 0V53h4.4v4.4zm-17.7 0V53h4.4v4.4zm-17.8 0V53H32v4.4zm443.6-17.7v-4.4h4.4v4.4zm-17.7 0v-4.4h4.4v4.4zm-17.8 0v-4.4h4.4v4.4zm-17.7 0v-4.4h4.4v4.4zm-17.8 0v-4.4h4.4v4.4zm-17.7 0v-4.4h4.4v4.4zm-17.8 0v-4.4h4.4v4.4zm-17.7 0v-4.4h4.4v4.4zm-17.7 0v-4.4h4.4v4.4zm-17.8 0v-4.4h4.4v4.4zm-17.7 0v-4.4h4.4v4.4zm-17.8 0v-4.4h4.4v4.4zm-17.7 0v-4.4h4.4v4.4zm-17.8 0v-4.4h4.4v4.4zm-17.7 0v-4.4h4.4v4.4zm-17.7 0v-4.4h4.4v4.4zm-17.8 0v-4.4h4.4v4.4zm-17.7 0v-4.4h4.4v4.4zm-17.8 0v-4.4h4.4v4.4zm-17.7 0v-4.4h4.4v4.4zm-17.8 0v-4.4h4.4v4.4zm-17.7 0v-4.4h4.4v4.4zm-17.7 0v-4.4h4.4v4.4zm-17.8 0v-4.4h4.4v4.4zm-17.7 0v-4.4h4.4v4.4zm-17.8 0v-4.4H32v4.4zm443.6-17.6v-4.4h4.4v4.4zm-17.7 0v-4.4h4.4v4.4zm-17.8 0v-4.4h4.4v4.4zm-17.7 0v-4.4h4.4v4.4zm-17.8 0v-4.4h4.4v4.4zm-17.7 0v-4.4h4.4v4.4zm-17.8 0v-4.4h4.4v4.4zm-17.7 0v-4.4h4.4v4.4zm-17.7 0v-4.4h4.4v4.4zm-17.8 0v-4.4h4.4v4.4zm-17.7 0v-4.4h4.4v4.4zm-17.8 0v-4.4h4.4v4.4zm-17.7 0v-4.4h4.4v4.4zm-17.8 0v-4.4h4.4v4.4zm-17.7 0v-4.4h4.4v4.4zm-17.7 0v-4.4h4.4v4.4zm-17.8 0v-4.4h4.4v4.4zm-17.7 0v-4.4h4.4v4.4zm-17.8 0v-4.4h4.4v4.4zm-17.7 0v-4.4h4.4v4.4zm-17.8 0v-4.4h4.4v4.4zm-17.7 0v-4.4h4.4v4.4zm-17.7 0v-4.4h4.4v4.4zm-17.8 0v-4.4h4.4v4.4zm-17.7 0v-4.4h4.4v4.4zm-17.8 0v-4.4H32v4.4zM471.1 4.4V0h4.4v4.4zm-17.7 0V0h4.4v4.4zm-17.8 0V0h4.4v4.4zm-17.7 0V0h4.4v4.4zm-17.8 0V0h4.4v4.4zm-17.7 0V0h4.4v4.4zm-17.8 0V0h4.4v4.4zm-17.7 0V0h4.4v4.4zm-17.7 0V0h4.4v4.4zm-17.8 0V0h4.4v4.4zm-17.7 0V0h4.4v4.4zm-17.8 0V0h4.4v4.4zm-17.7 0V0h4.4v4.4zm-17.8 0V0h4.4v4.4zm-17.7 0V0h4.4v4.4zm-17.7 0V0h4.4v4.4zm-17.7 0V0h4.4v4.4zm-17.8 0V0h4.4v4.4zm-17.7 0V0h4.4v4.4zm-17.8 0V0h4.4v4.4zm-17.7 0V0h4.4v4.4zm-17.8 0V0h4.4v4.4zm-17.7 0V0h4.4v4.4zM63 4.4V0h4.4v4.4zm-17.7 0V0h4.4v4.4zm-17.8 0V0H32v4.4z" style="isolation:isolate" fill="url(#prefix__c)" opacity="0.38"/>
            <path d="M939.1 392.8v-4.4h4.4v4.4zm-17.7 0v-4.4h4.4v4.4zm-17.8 0v-4.4h4.4v4.4zm-17.7 0v-4.4h4.4v4.4zm-17.8 0v-4.4h4.4v4.4zm-17.7 0v-4.4h4.4v4.4zm-17.7 0v-4.4h4.4v4.4zm-17.8 0v-4.4h4.4v4.4zm-17.7 0v-4.4h4.4v4.4zm-17.8 0v-4.4h4.4v4.4zm-17.7 0v-4.4h4.4v4.4zm-17.8 0v-4.4h4.4v4.4zm-17.7 0v-4.4h4.4v4.4zm-17.7 0v-4.4h4.4v4.4zm-17.8 0v-4.4h4.4v4.4zm-17.7 0v-4.4h4.4v4.4zm-17.8 0v-4.4h4.4v4.4zm-17.7 0v-4.4h4.4v4.4zm-17.8 0v-4.4h4.4v4.4zm-17.7 0v-4.4h4.4v4.4zm-17.7 0v-4.4h4.4v4.4zm-17.8 0v-4.4h4.5v4.4zm-17.7 0v-4.4h4.4v4.4zm-17.8 0v-4.4h4.4v4.4zm-17.7 0v-4.4h4.4v4.4zm-17.8 0v-4.4h4.5v4.4zm443.6-17.6v-4.4h4.4v4.4zm-17.7 0v-4.4h4.4v4.4zm-17.8 0v-4.4h4.4v4.4zm-17.7 0v-4.4h4.4v4.4zm-17.8 0v-4.4h4.4v4.4zm-17.7 0v-4.4h4.4v4.4zm-17.7 0v-4.4h4.4v4.4zm-17.8 0v-4.4h4.4v4.4zm-17.7 0v-4.4h4.4v4.4zm-17.8 0v-4.4h4.4v4.4zm-17.7 0v-4.4h4.4v4.4zm-17.8 0v-4.4h4.4v4.4zm-17.7 0v-4.4h4.4v4.4zm-17.7 0v-4.4h4.4v4.4zm-17.8 0v-4.4h4.4v4.4zm-17.7 0v-4.4h4.4v4.4zm-17.8 0v-4.4h4.4v4.4zm-17.7 0v-4.4h4.4v4.4zm-17.8 0v-4.4h4.4v4.4zm-17.7 0v-4.4h4.4v4.4zm-17.7 0v-4.4h4.4v4.4zm-17.8 0v-4.4h4.4v4.4zm-17.7 0v-4.4h4.4v4.4zm-17.8 0v-4.4h4.4v4.4zm-17.7 0v-4.4h4.4v4.4zm-17.8 0v-4.4h4.5v4.4zm443.6-17.7v-4.4h4.4v4.4zm-17.7 0v-4.4h4.4v4.4zm-17.8 0v-4.4h4.4v4.4zm-17.7 0v-4.4h4.4v4.4zm-17.8 0v-4.4h4.4v4.4zm-17.7 0v-4.4h4.4v4.4zm-17.7 0v-4.4h4.4v4.4zm-17.8 0v-4.4h4.4v4.4zm-17.7 0v-4.4h4.4v4.4zm-17.8 0v-4.4h4.4v4.4zm-17.7 0v-4.4h4.4v4.4zm-17.8 0v-4.4h4.4v4.4zm-17.7 0v-4.4h4.4v4.4zm-17.7 0v-4.4h4.4v4.4zm-17.8 0v-4.4h4.4v4.4zm-17.7 0v-4.4h4.4v4.4zm-17.8 0v-4.4h4.4v4.4zm-17.7 0v-4.4h4.4v4.4zm-17.8 0v-4.4h4.4v4.4zm-17.7 0v-4.4h4.4v4.4zm-17.7 0v-4.4h4.4v4.4zm-17.8 0v-4.4h4.4v4.4zm-17.7 0v-4.4h4.4v4.4zm-17.8 0v-4.4h4.4v4.4zm-17.7 0v-4.4h4.4v4.4zm-17.8 0v-4.4h4.5v4.4zm443.6-17.6v-4.4h4.4v4.4zm-17.7 0v-4.4h4.4v4.4zm-17.8 0v-4.4h4.4v4.4zm-17.7 0v-4.4h4.4v4.4zm-17.8 0v-4.4h4.4v4.4zm-17.7 0v-4.4h4.4v4.4zm-17.7 0v-4.4h4.4v4.4zm-17.8 0v-4.4h4.4v4.4zm-17.7 0v-4.4h4.4v4.4zm-17.8 0v-4.4h4.4v4.4zm-17.7 0v-4.4h4.4v4.4zm-17.8 0v-4.4h4.4v4.4zm-17.7 0v-4.4h4.4v4.4zm-17.7 0v-4.4h4.4v4.4zm-17.8 0v-4.4h4.4v4.4zm-17.7 0v-4.4h4.4v4.4zm-17.8 0v-4.4h4.4v4.4zm-17.7 0v-4.4h4.4v4.4zm-17.8 0v-4.4h4.4v4.4zm-17.7 0v-4.4h4.4v4.4zm-17.7 0v-4.4h4.4v4.4zm-17.8 0v-4.4h4.4v4.4zm-17.7 0v-4.4h4.4v4.4zm-17.8 0v-4.4h4.4v4.4zm-17.7 0v-4.4h4.4v4.4zm-17.8 0v-4.4h4.5v4.4zm443.6-17.7v-4.4h4.4v4.4zm-17.7 0v-4.4h4.4v4.4zm-17.8 0v-4.4h4.4v4.4zm-17.7 0v-4.4h4.4v4.4zm-17.8 0v-4.4h4.4v4.4zm-17.7 0v-4.4h4.4v4.4zm-17.7 0v-4.4h4.4v4.4zm-17.8 0v-4.4h4.4v4.4zm-17.7 0v-4.4h4.4v4.4zm-17.8 0v-4.4h4.4v4.4zm-17.7 0v-4.4h4.4v4.4zm-17.8 0v-4.4h4.4v4.4zm-17.7 0v-4.4h4.4v4.4zm-17.7 0v-4.4h4.4v4.4zm-17.8 0v-4.4h4.4v4.4zm-17.7 0v-4.4h4.4v4.4zm-17.8 0v-4.4h4.4v4.4zm-17.7 0v-4.4h4.4v4.4zm-17.8 0v-4.4h4.4v4.4zm-17.7 0v-4.4h4.4v4.4zm-17.7 0v-4.4h4.4v4.4zm-17.8 0v-4.4h4.4v4.4zm-17.7 0v-4.4h4.4v4.4zm-17.8 0v-4.4h4.4v4.4zm-17.7 0v-4.4h4.4v4.4zm-17.8 0v-4.4h4.5v4.4zm443.6-17.6v-4.4h4.4v4.4zm-17.7 0v-4.4h4.4v4.4zm-17.8 0v-4.4h4.4v4.4zm-17.7 0v-4.4h4.4v4.4zm-17.8 0v-4.4h4.4v4.4zm-17.7 0v-4.4h4.4v4.4zm-17.7 0v-4.4h4.4v4.4zm-17.8 0v-4.4h4.4v4.4zm-17.7 0v-4.4h4.4v4.4zm-17.8 0v-4.4h4.4v4.4zm-17.7 0v-4.4h4.4v4.4zm-17.8 0v-4.4h4.4v4.4zm-17.7 0v-4.4h4.4v4.4zm-17.7 0v-4.4h4.4v4.4zm-17.8 0v-4.4h4.4v4.4zm-17.7 0v-4.4h4.4v4.4zm-17.8 0v-4.4h4.4v4.4zm-17.7 0v-4.4h4.4v4.4zm-17.8 0v-4.4h4.4v4.4zm-17.7 0v-4.4h4.4v4.4zm-17.7 0v-4.4h4.4v4.4zm-17.8 0v-4.4h4.4v4.4zm-17.7 0v-4.4h4.4v4.4zm-17.8 0v-4.4h4.4v4.4zm-17.7 0v-4.4h4.4v4.4zm-17.8 0v-4.4h4.5v4.4zm443.6-17.7v-4.4h4.4v4.4zm-17.7 0v-4.4h4.4v4.4zm-17.8 0v-4.4h4.4v4.4zm-17.7 0v-4.4h4.4v4.4zm-17.8 0v-4.4h4.4v4.4zm-17.7 0v-4.4h4.4v4.4zm-17.7 0v-4.4h4.4v4.4zm-17.8 0v-4.4h4.4v4.4zm-17.7 0v-4.4h4.4v4.4zm-17.8 0v-4.4h4.4v4.4zm-17.7 0v-4.4h4.4v4.4zm-17.8 0v-4.4h4.4v4.4zm-17.7 0v-4.4h4.4v4.4zm-17.7 0v-4.4h4.4v4.4zm-17.8 0v-4.4h4.4v4.4zm-17.7 0v-4.4h4.4v4.4zm-17.8 0v-4.4h4.4v4.4zm-17.7 0v-4.4h4.4v4.4zm-17.8 0v-4.4h4.4v4.4zm-17.7 0v-4.4h4.4v4.4zm-17.7 0v-4.4h4.4v4.4zm-17.8 0v-4.4h4.4v4.4zm-17.7 0v-4.4h4.4v4.4zm-17.8 0v-4.4h4.4v4.4zm-17.7 0v-4.4h4.4v4.4zm-17.8 0v-4.4h4.5v4.4zm443.6-17.6v-4.4h4.4v4.4zm-17.7 0v-4.4h4.4v4.4zm-17.8 0v-4.4h4.4v4.4zm-17.7 0v-4.4h4.4v4.4zm-17.8 0v-4.4h4.4v4.4zm-17.7 0v-4.4h4.4v4.4zm-17.7 0v-4.4h4.4v4.4zm-17.8 0v-4.4h4.4v4.4zm-17.7 0v-4.4h4.4v4.4zm-17.8 0v-4.4h4.4v4.4zm-17.7 0v-4.4h4.4v4.4zm-17.8 0v-4.4h4.4v4.4zm-17.7 0v-4.4h4.4v4.4zm-17.7 0v-4.4h4.4v4.4zm-17.8 0v-4.4h4.4v4.4zm-17.7 0v-4.4h4.4v4.4zm-17.8 0v-4.4h4.4v4.4zm-17.7 0v-4.4h4.4v4.4zm-17.8 0v-4.4h4.4v4.4zm-17.7 0v-4.4h4.4v4.4zm-17.7 0v-4.4h4.4v4.4zm-17.8 0v-4.4h4.4v4.4zm-17.7 0v-4.4h4.4v4.4zm-17.8 0v-4.4h4.4v4.4zm-17.7 0v-4.4h4.4v4.4zm-17.8 0v-4.4h4.5v4.4zm443.6-17.7v-4.4h4.4v4.4zm-17.7 0v-4.4h4.4v4.4zm-17.8 0v-4.4h4.4v4.4zm-17.7 0v-4.4h4.4v4.4zm-17.8 0v-4.4h4.4v4.4zm-17.7 0v-4.4h4.4v4.4zm-17.7 0v-4.4h4.4v4.4zm-17.8 0v-4.4h4.4v4.4zm-17.7 0v-4.4h4.4v4.4zm-17.8 0v-4.4h4.4v4.4zm-17.7 0v-4.4h4.4v4.4zm-17.8 0v-4.4h4.4v4.4zm-17.7 0v-4.4h4.4v4.4zm-17.7 0v-4.4h4.4v4.4zm-17.8 0v-4.4h4.4v4.4zm-17.7 0v-4.4h4.4v4.4zm-17.8 0v-4.4h4.4v4.4zm-17.7 0v-4.4h4.4v4.4zm-17.8 0v-4.4h4.4v4.4zm-17.7 0v-4.4h4.4v4.4zm-17.7 0v-4.4h4.4v4.4zm-17.8 0v-4.4h4.4v4.4zm-17.7 0v-4.4h4.4v4.4zm-17.8 0v-4.4h4.4v4.4zm-17.7 0v-4.4h4.4v4.4zm-17.8 0v-4.4h4.5v4.4zm443.6-17.7v-4.4h4.4v4.4zm-17.7 0v-4.4h4.4v4.4zm-17.8 0v-4.4h4.4v4.4zm-17.7 0v-4.4h4.4v4.4zm-17.8 0v-4.4h4.4v4.4zm-17.7 0v-4.4h4.4v4.4zm-17.7 0v-4.4h4.4v4.4zm-17.8 0v-4.4h4.4v4.4zm-17.7 0v-4.4h4.4v4.4zm-17.8 0v-4.4h4.4v4.4zm-17.7 0v-4.4h4.4v4.4zm-17.8 0v-4.4h4.4v4.4zm-17.7 0v-4.4h4.4v4.4zm-17.7 0v-4.4h4.4v4.4zm-17.8 0v-4.4h4.4v4.4zm-17.7 0v-4.4h4.4v4.4zm-17.8 0v-4.4h4.4v4.4zm-17.7 0v-4.4h4.4v4.4zm-17.8 0v-4.4h4.4v4.4zm-17.7 0v-4.4h4.4v4.4zm-17.7 0v-4.4h4.4v4.4zm-17.8 0v-4.4h4.4v4.4zm-17.7 0v-4.4h4.4v4.4zm-17.8 0v-4.4h4.4v4.4zm-17.7 0v-4.4h4.4v4.4zm-17.8 0v-4.4h4.5v4.4zm443.6-17.6v-4.4h4.4v4.4zm-17.7 0v-4.4h4.4v4.4zm-17.8 0v-4.4h4.4v4.4zm-17.7 0v-4.4h4.4v4.4zm-17.8 0v-4.4h4.4v4.4zm-17.7 0v-4.4h4.4v4.4zm-17.7 0v-4.4h4.4v4.4zm-17.8 0v-4.4h4.4v4.4zm-17.7 0v-4.4h4.4v4.4zm-17.8 0v-4.4h4.4v4.4zm-17.7 0v-4.4h4.4v4.4zm-17.8 0v-4.4h4.4v4.4zm-17.7 0v-4.4h4.4v4.4zm-17.7 0v-4.4h4.4v4.4zm-17.8 0v-4.4h4.4v4.4zm-17.7 0v-4.4h4.4v4.4zm-17.8 0v-4.4h4.4v4.4zm-17.7 0v-4.4h4.4v4.4zm-17.8 0v-4.4h4.4v4.4zm-17.7 0v-4.4h4.4v4.4zm-17.7 0v-4.4h4.4v4.4zm-17.8 0v-4.4h4.4v4.4zm-17.7 0v-4.4h4.4v4.4zm-17.8 0v-4.4h4.4v4.4zm-17.7 0v-4.4h4.4v4.4zm-17.8 0v-4.4h4.5v4.4zm443.6-17.7v-4.4h4.4v4.4zm-17.7 0v-4.4h4.4v4.4zm-17.8 0v-4.4h4.4v4.4zm-17.7 0v-4.4h4.4v4.4zm-17.8 0v-4.4h4.4v4.4zm-17.7 0v-4.4h4.4v4.4zm-17.7 0v-4.4h4.4v4.4zm-17.8 0v-4.4h4.4v4.4zm-17.7 0v-4.4h4.4v4.4zm-17.8 0v-4.4h4.4v4.4zm-17.7 0v-4.4h4.4v4.4zm-17.8 0v-4.4h4.4v4.4zm-17.7 0v-4.4h4.4v4.4zm-17.7 0v-4.4h4.4v4.4zm-17.8 0v-4.4h4.4v4.4zm-17.7 0v-4.4h4.4v4.4zm-17.8 0v-4.4h4.4v4.4zm-17.7 0v-4.4h4.4v4.4zm-17.8 0v-4.4h4.4v4.4zm-17.7 0v-4.4h4.4v4.4zm-17.7 0v-4.4h4.4v4.4zm-17.8 0v-4.4h4.4v4.4zm-17.7 0v-4.4h4.4v4.4zm-17.8 0v-4.4h4.4v4.4zm-17.7 0v-4.4h4.4v4.4zm-17.8 0v-4.4h4.5v4.4zM939.1 181v-4.4h4.4v4.4zm-17.7 0v-4.4h4.4v4.4zm-17.8 0v-4.4h4.4v4.4zm-17.7 0v-4.4h4.4v4.4zm-17.8 0v-4.4h4.4v4.4zm-17.7 0v-4.4h4.4v4.4zm-17.7 0v-4.4h4.4v4.4zm-17.8 0v-4.4h4.4v4.4zm-17.7 0v-4.4h4.4v4.4zm-17.8 0v-4.4h4.4v4.4zm-17.7 0v-4.4h4.4v4.4zm-17.8 0v-4.4h4.4v4.4zm-17.7 0v-4.4h4.4v4.4zm-17.7 0v-4.4h4.4v4.4zm-17.8 0v-4.4h4.4v4.4zm-17.7 0v-4.4h4.4v4.4zm-17.7 0v-4.4h4.4v4.4zm-17.8 0v-4.4h4.4v4.4zm-17.7 0v-4.4h4.4v4.4zm-17.8 0v-4.4h4.4v4.4zm-17.7 0v-4.4h4.4v4.4zm-17.8 0v-4.4h4.4v4.4zm-17.7 0v-4.4h4.4v4.4zm-17.8 0v-4.4h4.4v4.4zm-17.7 0v-4.4h4.4v4.4zm-17.8 0v-4.4h4.5v4.4zm443.6-17.7v-4.4h4.4v4.4zm-17.7 0v-4.4h4.4v4.4zm-17.8 0v-4.4h4.4v4.4zm-17.7 0v-4.4h4.4v4.4zm-17.8 0v-4.4h4.4v4.4zm-17.7 0v-4.4h4.4v4.4zm-17.8 0v-4.4h4.4v4.4zm-17.7 0v-4.4h4.4v4.4zm-17.7 0v-4.4h4.4v4.4zm-17.8 0v-4.4h4.4v4.4zm-17.7 0v-4.4h4.4v4.4zm-17.8 0v-4.4h4.4v4.4zm-17.7 0v-4.4h4.4v4.4zm-17.8 0v-4.4h4.4v4.4zm-17.7 0v-4.4h4.4v4.4zm-17.7 0v-4.4h4.4v4.4zm-17.8 0v-4.4h4.4v4.4zm-17.7 0v-4.4h4.4v4.4zm-17.8 0v-4.4h4.4v4.4zm-17.7 0v-4.4h4.4v4.4zm-17.7 0v-4.4h4.4v4.4zm-17.8 0v-4.4h4.4v4.4zm-17.7 0v-4.4h4.4v4.4zm-17.8 0v-4.4h4.4v4.4zm-17.7 0v-4.4h4.4v4.4zm-17.8 0v-4.4h4.5v4.4zm443.6-17.6v-4.4h4.4v4.4zm-17.7 0v-4.4h4.4v4.4zm-17.8 0v-4.4h4.4v4.4zm-17.7 0v-4.4h4.4v4.4zm-17.8 0v-4.4h4.4v4.4zm-17.7 0v-4.4h4.4v4.4zm-17.8 0v-4.4h4.4v4.4zm-17.7 0v-4.4h4.4v4.4zm-17.7 0v-4.4h4.4v4.4zm-17.8 0v-4.4h4.4v4.4zm-17.7 0v-4.4h4.4v4.4zm-17.8 0v-4.4h4.4v4.4zm-17.7 0v-4.4h4.4v4.4zm-17.8 0v-4.4h4.4v4.4zm-17.7 0v-4.4h4.4v4.4zm-17.7 0v-4.4h4.4v4.4zm-17.8 0v-4.4h4.4v4.4zm-17.7 0v-4.4h4.4v4.4zm-17.8 0v-4.4h4.4v4.4zm-17.7 0v-4.4h4.4v4.4zm-17.7 0v-4.4h4.4v4.4zm-17.8 0v-4.4h4.4v4.4zm-17.7 0v-4.4h4.4v4.4zm-17.8 0v-4.4h4.4v4.4zm-17.7 0v-4.4h4.4v4.4zm-17.8 0v-4.4h4.5v4.4zM939.1 128v-4.4h4.4v4.4zm-17.7 0v-4.4h4.4v4.4zm-17.8 0v-4.4h4.4v4.4zm-17.7 0v-4.4h4.4v4.4zm-17.8 0v-4.4h4.4v4.4zm-17.7 0v-4.4h4.4v4.4zm-17.8 0v-4.4h4.4v4.4zm-17.7 0v-4.4h4.4v4.4zm-17.7 0v-4.4h4.4v4.4zm-17.8 0v-4.4h4.4v4.4zm-17.7 0v-4.4h4.4v4.4zm-17.8 0v-4.4h4.4v4.4zm-17.7 0v-4.4h4.4v4.4zm-17.8 0v-4.4h4.4v4.4zm-17.7 0v-4.4h4.4v4.4zm-17.7 0v-4.4h4.4v4.4zm-17.7 0v-4.4h4.4v4.4zm-17.8 0v-4.4h4.4v4.4zm-17.7 0v-4.4h4.4v4.4zm-17.8 0v-4.4h4.4v4.4zm-17.7 0v-4.4h4.4v4.4zm-17.8 0v-4.4h4.4v4.4zm-17.7 0v-4.4h4.4v4.4zm-17.8 0v-4.4h4.4v4.4zm-17.7 0v-4.4h4.4v4.4zm-17.8 0v-4.4h4.5v4.4zm443.6-17.7v-4.4h4.4v4.4zm-17.7 0v-4.4h4.4v4.4zm-17.8 0v-4.4h4.4v4.4zm-17.7 0v-4.4h4.4v4.4zm-17.8 0v-4.4h4.4v4.4zm-17.7 0v-4.4h4.4v4.4zm-17.8 0v-4.4h4.4v4.4zm-17.7 0v-4.4h4.4v4.4zm-17.7 0v-4.4h4.4v4.4zm-17.8 0v-4.4h4.4v4.4zm-17.7 0v-4.4h4.4v4.4zm-17.8 0v-4.4h4.4v4.4zm-17.7 0v-4.4h4.4v4.4zm-17.8 0v-4.4h4.4v4.4zm-17.7 0v-4.4h4.4v4.4zm-17.7 0v-4.4h4.4v4.4zm-17.8 0v-4.4h4.4v4.4zm-17.7 0v-4.4h4.4v4.4zm-17.8 0v-4.4h4.4v4.4zm-17.7 0v-4.4h4.4v4.4zm-17.8 0v-4.4h4.4v4.4zm-17.7 0v-4.4h4.4v4.4zm-17.7 0v-4.4h4.4v4.4zm-17.8 0v-4.4h4.4v4.4zm-17.7 0v-4.4h4.4v4.4zm-17.8 0v-4.4h4.5v4.4zm443.6-17.6v-4.4h4.4v4.4zm-17.7 0v-4.4h4.4v4.4zm-17.8 0v-4.4h4.4v4.4zm-17.7 0v-4.4h4.4v4.4zm-17.8 0v-4.4h4.4v4.4zm-17.7 0v-4.4h4.4v4.4zm-17.8 0v-4.4h4.4v4.4zm-17.7 0v-4.4h4.4v4.4zm-17.7 0v-4.4h4.4v4.4zm-17.8 0v-4.4h4.4v4.4zm-17.7 0v-4.4h4.4v4.4zm-17.8 0v-4.4h4.4v4.4zm-17.7 0v-4.4h4.4v4.4zm-17.8 0v-4.4h4.4v4.4zm-17.7 0v-4.4h4.4v4.4zm-17.7 0v-4.4h4.4v4.4zm-17.8 0v-4.4h4.4v4.4zm-17.7 0v-4.4h4.4v4.4zm-17.8 0v-4.4h4.4v4.4zm-17.7 0v-4.4h4.4v4.4zm-17.8 0v-4.4h4.4v4.4zm-17.7 0v-4.4h4.4v4.4zm-17.7 0v-4.4h4.4v4.4zm-17.8 0v-4.4h4.4v4.4zm-17.7 0v-4.4h4.4v4.4zm-17.8 0v-4.4h4.5v4.4zM939.1 75v-4.4h4.4V75zm-17.7 0v-4.4h4.4V75zm-17.8 0v-4.4h4.4V75zm-17.7 0v-4.4h4.4V75zm-17.8 0v-4.4h4.4V75zm-17.7 0v-4.4h4.4V75zm-17.8 0v-4.4h4.4V75zm-17.7 0v-4.4h4.4V75zm-17.7 0v-4.4h4.4V75zm-17.8 0v-4.4h4.4V75zm-17.7 0v-4.4h4.4V75zm-17.8 0v-4.4h4.4V75zm-17.7 0v-4.4h4.4V75zm-17.8 0v-4.4h4.4V75zm-17.7 0v-4.4h4.4V75zM673 75v-4.4h4.4V75zm-17.7 0v-4.4h4.4V75zm-17.8 0v-4.4h4.4V75zm-17.7 0v-4.4h4.4V75zM602 75v-4.4h4.4V75zm-17.7 0v-4.4h4.4V75zm-17.8 0v-4.4h4.4V75zm-17.7 0v-4.4h4.4V75zM531 75v-4.4h4.4V75zm-17.7 0v-4.4h4.4V75zm-17.8 0v-4.4h4.5V75zm443.6-17.6V53h4.4v4.4zm-17.7 0V53h4.4v4.4zm-17.8 0V53h4.4v4.4zm-17.7 0V53h4.4v4.4zm-17.8 0V53h4.4v4.4zm-17.7 0V53h4.4v4.4zm-17.8 0V53h4.4v4.4zm-17.7 0V53h4.4v4.4zm-17.7 0V53h4.4v4.4zm-17.8 0V53h4.4v4.4zm-17.7 0V53h4.4v4.4zm-17.8 0V53h4.4v4.4zm-17.7 0V53h4.4v4.4zm-17.8 0V53h4.4v4.4zm-17.7 0V53h4.4v4.4zm-17.7 0V53h4.4v4.4zm-17.8 0V53h4.4v4.4zm-17.7 0V53h4.4v4.4zm-17.8 0V53h4.4v4.4zm-17.7 0V53h4.4v4.4zm-17.8 0V53h4.4v4.4zm-17.7 0V53h4.4v4.4zm-17.7 0V53h4.4v4.4zm-17.8 0V53h4.5v4.4zm-17.7 0V53h4.4v4.4zm-17.8 0V53h4.5v4.4zm443.6-17.7v-4.4h4.4v4.4zm-17.7 0v-4.4h4.4v4.4zm-17.8 0v-4.4h4.4v4.4zm-17.7 0v-4.4h4.4v4.4zm-17.8 0v-4.4h4.4v4.4zm-17.7 0v-4.4h4.4v4.4zm-17.8 0v-4.4h4.4v4.4zm-17.7 0v-4.4h4.4v4.4zm-17.7 0v-4.4h4.4v4.4zm-17.8 0v-4.4h4.4v4.4zm-17.7 0v-4.4h4.4v4.4zm-17.8 0v-4.4h4.4v4.4zm-17.7 0v-4.4h4.4v4.4zm-17.8 0v-4.4h4.4v4.4zm-17.7 0v-4.4h4.4v4.4zm-17.7 0v-4.4h4.4v4.4zm-17.8 0v-4.4h4.4v4.4zm-17.7 0v-4.4h4.4v4.4zm-17.8 0v-4.4h4.4v4.4zm-17.7 0v-4.4h4.4v4.4zm-17.8 0v-4.4h4.4v4.4zm-17.7 0v-4.4h4.4v4.4zm-17.7 0v-4.4h4.4v4.4zm-17.8 0v-4.4h4.5v4.4zm-17.7 0v-4.4h4.4v4.4zm-17.8 0v-4.4h4.5v4.4zm443.6-17.6v-4.4h4.4v4.4zm-17.7 0v-4.4h4.4v4.4zm-17.8 0v-4.4h4.4v4.4zm-17.7 0v-4.4h4.4v4.4zm-17.8 0v-4.4h4.4v4.4zm-17.7 0v-4.4h4.4v4.4zm-17.8 0v-4.4h4.4v4.4zm-17.7 0v-4.4h4.4v4.4zm-17.7 0v-4.4h4.4v4.4zm-17.8 0v-4.4h4.4v4.4zm-17.7 0v-4.4h4.4v4.4zm-17.8 0v-4.4h4.4v4.4zm-17.7 0v-4.4h4.4v4.4zm-17.8 0v-4.4h4.4v4.4zm-17.7 0v-4.4h4.4v4.4zm-17.7 0v-4.4h4.4v4.4zm-17.8 0v-4.4h4.4v4.4zm-17.7 0v-4.4h4.4v4.4zm-17.8 0v-4.4h4.4v4.4zm-17.7 0v-4.4h4.4v4.4zm-17.8 0v-4.4h4.4v4.4zm-17.7 0v-4.4h4.4v4.4zm-17.7 0v-4.4h4.4v4.4zm-17.8 0v-4.4h4.5v4.4zm-17.7 0v-4.4h4.4v4.4zm-17.8 0v-4.4h4.5v4.4zM939.1 4.4V0h4.4v4.4zm-17.8 0V0h4.4v4.4zm-17.7 0V0h4.4v4.4zm-17.7 0V0h4.4v4.4zm-17.8 0V0h4.4v4.4zm-17.7 0V0h4.4v4.4zm-17.8 0V0h4.4v4.4zm-17.7 0V0h4.4v4.4zm-17.7 0V0h4.4v4.4zm-17.8 0V0h4.4v4.4zm-17.7 0V0h4.4v4.4zm-17.8 0V0h4.4v4.4zm-17.7 0V0h4.4v4.4zm-17.8 0V0h4.4v4.4zm-17.7 0V0h4.4v4.4zm-17.7 0V0h4.4v4.4zm-17.7 0V0h4.4v4.4zm-17.8 0V0h4.4v4.4zm-17.7 0V0h4.4v4.4zm-17.8 0V0h4.4v4.4zm-17.7 0V0h4.4v4.4zm-17.8 0V0h4.4v4.4zm-17.7 0V0h4.4v4.4zm-17.8 0V0h4.5v4.4zm-17.7 0V0h4.4v4.4zm-17.8 0V0h4.5v4.4z" style="isolation:isolate" fill="url(#prefix__d)" opacity="0.38"/>
        </g>
        <path d="M102 162h397.5a6.59 6.59 0 0 1 6.6 6.6v266.3H95.4V168.6a6.59 6.59 0 0 1 6.6-6.6z" class="prefix__f"/>
        <path d="M109.4 173.3h382.8a2.69 2.69 0 0 1 2.7 2.7v245a2.69 2.69 0 0 1-2.7 2.7H109.4a2.69 2.69 0 0 1-2.7-2.7V176a2.69 2.69 0 0 1 2.7-2.7z" class="prefix__g"/>
        <path fill="#e0e0e0" d="M270.9 245.8H135.3a15.51 15.51 0 0 1-15.5-15.5 15.51 15.51 0 0 1 15.5-15.5H271a15.51 15.51 0 0 1 15.5 15.5 15.6 15.6 0 0 1-15.6 15.5z"/>
        <path fill="#ff2953" d="M121.9 181.8a3.6 3.6 0 1 1-3.6-3.6 3.59 3.59 0 0 1 3.6 3.6z"/>
        <path fill="#ffe500" d="M132.8 181.8a3.6 3.6 0 1 1-3.6-3.6 3.59 3.59 0 0 1 3.6 3.6z"/>
        <path fill="#a5dc00" d="M143.8 181.8a3.6 3.6 0 1 1-3.6-3.6 3.59 3.59 0 0 1 3.6 3.6z"/>
        <path d="M240.4 272.4H122.5a2.8 2.8 0 01-2.8-2.8 2.8 2.8 0 012.8-2.8h117.9a2.78 2.78 0 012.8 2.7 2.88 2.88 0 01-2.8 2.9zM240.4 296.5H122.5a2.8 2.8 0 01-2.8-2.8 2.8 2.8 0 012.8-2.8h117.9a2.8 2.8 0 012.8 2.8 2.86 2.86 0 01-2.8 2.8zM168.3 320.7h-45.8a2.8 2.8 0 01-2.8-2.8 2.8 2.8 0 012.8-2.8h45.8a2.78 2.78 0 012.8 2.7 2.88 2.88 0 01-2.8 2.9z" class="prefix__l"/>
        <path fill="#4b4b4b" d="M305.8 162H329.7V434.9H305.8z"/>
        <path d="M215.9 33.8L215.9 57M227.6 45.4L204.3 45.4" class="prefix__n"/>
        <path d="M599.1 56.6L599.5 79.9M610.9 68L587.7 68.5" class="prefix__o"/>
        <path d="M104.8 113.3L105.2 136.5M116.6 124.7L93.4 125.1" class="prefix__p"/>
        <path d="M623.2 237.4l-8.3-.2-12.9-.3v.1l-10.8-.1s-2.1 8.2-4.8 21.7c21.4 4.7 36.3-2.6 42.3-6.5-1.2-6.2-3-11.3-5.5-14.7z" style="isolation:isolate" fill="url(#prefix__e)" opacity="0.3"/>
        <path d="M514.7 156.1l6.5 10.4 1.8-10.4z" style="isolation:isolate" fill="url(#prefix__f)" opacity="0.3"/>
        <path d="M544.3 231.5l-44.3 6.3.4 4.8 52.1 7-1.9-13.3a5.56 5.56 0 0 0-6.3-4.8z" style="isolation:isolate" fill="url(#prefix__g)" opacity="0.3"/>
        <path d="M77.4 419.1s1.7 3.9 1.6 6.5-8.4 3.1-9.4 1.8-2-13.2-2-13.2" class="prefix__t"/>
        <path d="M67.6 429.8a55.16 55.16 0 0 0 1 7.1l9.5-.4.4-1.6a15.92 15.92 0 0 0 5.6 1.4l8-.3c5.9-.3 9.2-1.1 9.3-2.2.4-4.4-6.6-3.9-8.4-3.8-5.3.2-11.1-2-12.4-4.6-1-1.9-.6-2.4-1.7-2a2.94 2.94 0 0 0-1.6 1.5 4.84 4.84 0 0 1-4.9 2.9 5.77 5.77 0 0 1-3.3-1.4 3.32 3.32 0 0 0-1.5 3.4z" class="prefix__u"/>
        <path d="M16.1 416a70.23 70.23 0 0 1-2.4 9c-1 2.3-8.5-.2-8.9-1.7S7.7 411 7.7 411" class="prefix__t"/>
        <path d="M2.1 424.6c-.9 2.4-2.1 7.1-2.1 7.1l7 3.8 1.3-1.1a13.05 13.05 0 003.8 3.6 28.51 28.51 0 006.9 2.5c6.3 1.2 11.2.3 11.6-.6 1.9-3.7-6.5-5.3-8.1-5.9a11.16 11.16 0 01-7.3-8.9c-.2-2 .3-2.3-.8-2.4a2.36 2.36 0 00-1.9.8 4.73 4.73 0 01-5.3.9 5.56 5.56 0 01-2.4-2.4 3.74 3.74 0 00-2.7 2.6zM29.7 301.1s-11-23.5 5.7-41.6c0 0 15.1 6 27.1 6.4 9.4.2 14.1-.9 14.1-.9s2.8 17.3 2.8 44.6zM68.5 424.1h.9a45.08 45.08 0 009.7-1.1v-1.8c-1.5-27.4 5-59.2 5-73.4a24.52 24.52 0 00-.2-2.7c-1.5-10.3-12.1-8.5-16.2 1.2a33 33 0 00-2.2 7.4c-.7 3.2-1.1 3.7-1.2 7.4-1.3 23.7 1.6 45.4 4.2 63z" class="prefix__u"/>
        <path d="M49.1 311.3a2.92 2.92 0 00.2.9c2.9 12.4 11.9 30.7 16 41.5.6 1.5 2.5 2.7 4.8 3.2 5.4 1.3 13.4-1.1 13.6-11.9a25.49 25.49 0 00-.2-3.9c-1.1-8.7-5-41.8-5.5-46.4s-1.7-11.4-4.2-12.1C61.5 279 45.2 294 49.1 311.3zM26.8 347.3c8-8.1 19.6-4.9 14.8 7.4-5.2 13.2-16.5 36.8-25.1 62.8l-.6 1.7a51.62 51.62 0 01-10.2-2.9c3.9-16.8 1.1-32.6 9.8-52.9 2.6-6.5 7.1-11.9 11.3-16.1z" class="prefix__u"/>
        <path d="M70.3 283.8c.8-19.3-22.6-5.5-33.9 1.3-4.7 2.9-6.3 8.3-6.7 13.4s-4.5 42.2-5.4 51.7c-1.9 21.5 16.2 9 17.7 3 3.9-15.2 27.8-58.9 28.3-69.4z" class="prefix__u"/>
        <path d="M67.1 162c.1 1.4.1 7.1-2.9 8.5s-5 2-4.9 2.4a11.79 11.79 0 0 0 .7 2.2c.7 2.2 1.8 2.7 1.8 2.7l.4 7.3-5.4 5.4-1.7 1.8-2.7-2.4-8.7-7.9s3.6-4.4 1.1-9.1c-.4-.7-4.3-5.1-7.5-9.5-1.8-2.6-3.4-5.2-3.8-7-1.1-5.1-2.1-10.4.8-13.5s22.8-16.3 26.8-1c-.1 0 6 18.6 6 20.1z" class="prefix__v"/>
        <path d="M43.6 157.6s4.8 1.7 4.3-4.8a.76.76 0 0 1 .6-.8c1.4-.4 4.5-2 2.9-8.3a.92.92 0 0 1 .7-1.1h.1a58.47 58.47 0 0 1 7.2-.7 3.75 3.75 0 0 1 1.1.1.66.66 0 0 1 .5.4c.3.6 2.2 6.5 2.2 6.5s2.2-1.7 2-2.8-1.3-3.5-1.2-4.1 1.8-1.3 1.8-2.6c0-3-1.2-14.7-10.4-7.5a15.94 15.94 0 0 1-3.3 2.5c-1.4.5-3-.5-6-.3-4.2.3-22.5 4.6-16.6 20.8S45 173.3 45 173.3s-3.2-13.7-1.4-15.7z" class="prefix__w"/>
        <path d="M43.6 157.6s-.9-2.8-3.2-2c-3.1 1.1-2.8 8.9 4 7.9a19.55 19.55 0 0 1-.8-5.9z" class="prefix__v"/>
        <path d="M87.1 281.3s-34.5 6.1-65.5.4c1.5-9.6 7.4-36.7 7.8-47.6V233c.2-7 .4-12 .5-12.2.3-.4-.8-22.7 1-31.4a6.07 6.07 0 0 1 1.3-3.2 64 64 0 0 1 12.7-8.5s11.1 11.9 16.8-1.3c6.2-.6 9.4.7 11.2 6.9 10.1 34.7 14.2 98 14.2 98z" class="prefix__x"/>
        <path d="M87.6 185.1l16.2 6.7 69.4 1.9s10.4-5.3 21 7.9l-109.3.3z" class="prefix__t"/>
        <path d="M66.4 176.5s18.8 5.6 30.5 8.6c3.4 8.2-.3 17-.3 17s-14.2-1.6-24.6-.7a132 132 0 0 0-5.6-24.9z" class="prefix__x"/>
        <path d="M212.3 231.1H76.7a15.51 15.51 0 0 1-15.5-15.5A15.6 15.6 0 0 1 76.7 200h135.6a15.51 15.51 0 0 1 15.5 15.5 15.47 15.47 0 0 1-15.5 15.6z" class="prefix__y"/>
        <path d="M211.6 209.7a5.59 5.59 0 11-7.9 0 5.55 5.55 0 017.9 0zM211.6 217.6L217.1 223.1" class="prefix__z"/>
        <path d="M27 226.2l4.6 9.6a13.55 13.55 0 0 0 13.4 7.5l58.7-5.6a30.72 30.72 0 0 0 6.7-1.4l15.5-5.1h-14.4a.94.94 0 0 1-1-1 1.23 1.23 0 0 1 .4-.8c2.6-1.8 6.1-4.3 5.5-4.7-.8-.7-7.9 3.2-14.3 5.9a10.32 10.32 0 0 1-3.4.7H50a5.63 5.63 0 0 1-5.3-3.7l-5-13.6z" class="prefix__t"/>
        <path d="M35.2 183.9s-12.8 8.4-13.4 22.7c-.4 11 6.9 27.1 6.9 27.1s12.7 1.4 19.3-8.9a73.15 73.15 0 0 0-7.5-15.4" class="prefix__x"/>
        <path d="M529.2 155.5h-.2V85.3a24.82 24.82 0 0 0-24.9-24.8H323.3a24.9 24.9 0 0 0-25 24.8v31.1a.9.9 0 0 0-.5-.1h-.5a1.2 1.2 0 0 0-1.2 1.1v14.3a1.22 1.22 0 0 0 1.2 1.2h.5a.9.9 0 0 0 .5-.1v12.7a.9.9 0 0 0-.5-.1h-.5a1.22 1.22 0 0 0-1.2 1.2v29.2a1.2 1.2 0 0 0 1.1 1.2h.5a.9.9 0 0 0 .5-.1v7.2a.9.9 0 0 0-.5-.1h-.5a1.2 1.2 0 0 0-1.2 1.1v28.6a1.22 1.22 0 0 0 1.2 1.2h.5a.9.9 0 0 0 .5-.1v220.5a24.78 24.78 0 0 0 25 24.8H504a24.84 24.84 0 0 0 25-24.8V208.8h.3a1.2 1.2 0 0 0 1.2-1.1v-51a1.3 1.3 0 0 0-1.3-1.2z" class="prefix__f"/>
        <path d="M399.3 74.2h23a1.69 1.69 0 0 1 1.7 1.7 1.69 1.69 0 0 1-1.7 1.7h-23a1.69 1.69 0 0 1-1.7-1.7 1.75 1.75 0 0 1 1.7-1.7z" class="prefix__aa"/>
        <circle cx="370.2" cy="75.9" r="4.1" class="prefix__aa"/>
        <circle cx="388.8" cy="75.9" r="4.1" class="prefix__aa"/>
        <path d="M499.7 450.1H327.1a19.08 19.08 0 0 1-19.1-19V88.8a19.08 19.08 0 0 1 19.1-19h33.6V75a8.71 8.71 0 0 0 8.7 8.7H451a8.62 8.62 0 0 0 8.6-8.7v-5.3h40a19.08 19.08 0 0 1 19.1 19v342.4a19 19 0 0 1-19 19z" class="prefix__g"/>
        <path d="M326.7 177.9h175.6a2.43 2.43 0 0 1 2.4 2.4v31.5a2.43 2.43 0 0 1-2.4 2.4H326.7a2.43 2.43 0 0 1-2.4-2.4v-31.5a2.37 2.37 0 0 1 2.4-2.4z" class="prefix__l"/>
        <path d="M498.8 177.9h-29.5v36.3h29.5a5.85 5.85 0 0 0 5.9-5.9v-24.5a5.85 5.85 0 0 0-5.9-5.9z" class="prefix__ab"/>
        <path d="M437.3 189.3h-99.9a2 2 0 01-2-2 2 2 0 012-2h99.9a2 2 0 012 2 2 2 0 01-2 2zM437.3 198h-99.9a2 2 0 01-2-2 2 2 0 012-2h99.9a2 2 0 012 2 2 2 0 01-2 2zM378.6 206.8h-41.2a2 2 0 01-2-2 2 2 0 012-2h41.2a2 2 0 012 2 2 2 0 01-2 2z" class="prefix__g"/>
        <circle cx="487" cy="196" r="6.7" class="prefix__g"/>
        <path d="M326.7 240.3h175.6a2.43 2.43 0 012.4 2.4v31.5a2.43 2.43 0 01-2.4 2.4H326.7a2.43 2.43 0 01-2.4-2.4v-31.5a2.43 2.43 0 012.4-2.4zM326.7 304.9h175.6a2.43 2.43 0 012.4 2.4v31.5a2.43 2.43 0 01-2.4 2.4H326.7a2.43 2.43 0 01-2.4-2.4v-31.5a2.37 2.37 0 012.4-2.4z" class="prefix__l"/>
        <path d="M498.8 304.9h-29.5v36.3h29.5a5.85 5.85 0 0 0 5.9-5.9v-24.5a5.85 5.85 0 0 0-5.9-5.9z" class="prefix__ab"/>
        <path d="M437.3 316.3h-99.9a2 2 0 01-2-2 2 2 0 012-2h99.9a2 2 0 012 2 2 2 0 01-2 2zM437.3 325h-99.9a2 2 0 01-2-2 2 2 0 012-2h99.9a2 2 0 012 2 2 2 0 01-2 2zM378.6 333.8h-41.2a2 2 0 01-2-2 2 2 0 012-2h41.2a2 2 0 012 2 2 2 0 01-2 2z" class="prefix__g"/>
        <circle cx="487" cy="323" r="6.7" class="prefix__g"/>
        <path d="M326.7 370.9h175.6a2.43 2.43 0 0 1 2.4 2.4v31.5a2.43 2.43 0 0 1-2.4 2.4H326.7a2.43 2.43 0 0 1-2.4-2.4v-31.5a2.37 2.37 0 0 1 2.4-2.4z" class="prefix__l"/>
        <path d="M498.8 370.9h-29.5v36.3h29.5a5.85 5.85 0 0 0 5.9-5.9v-24.5a5.85 5.85 0 0 0-5.9-5.9z" class="prefix__ab"/>
        <path d="M437.3 382.3h-99.9a2 2 0 01-2-2 2 2 0 012-2h99.9a2 2 0 012 2 2 2 0 01-2 2zM437.3 391h-99.9a2 2 0 01-2-2 2 2 0 012-2h99.9a2 2 0 012 2 2 2 0 01-2 2zM378.6 399.8h-41.2a2 2 0 01-2-2 2 2 0 012-2h41.2a2 2 0 012 2 2 2 0 01-2 2z" class="prefix__g"/>
        <circle cx="487" cy="389" r="6.7" class="prefix__g"/>
        <path d="M377.4 258.5l164.5-23.3a2.33 2.33 0 0 1 2.6 1.9l4.2 29.5a2.33 2.33 0 0 1-1.9 2.6l-164.5 23.3a2.33 2.33 0 0 1-2.6-1.9l-4.2-29.5a2.22 2.22 0 0 1 1.9-2.6z"/>
        <path fill="#a1b8ff" d="M378.8 253.3L543.3 230a2.33 2.33 0 0 1 2.6 1.9l4.2 29.5a2.33 2.33 0 0 1-1.9 2.6l-164.5 23.3a2.33 2.33 0 0 1-2.6-1.9l-4.2-29.5a2.28 2.28 0 0 1 1.9-2.6z"/>
        <path fill="#4eadff" d="M378.8 253.3L543.3 230a2.33 2.33 0 0 1 2.6 1.9l4.2 29.5a2.33 2.33 0 0 1-1.9 2.6l-164.5 23.3a2.33 2.33 0 0 1-2.6-1.9l-4.2-29.5a2.28 2.28 0 0 1 1.9-2.6z"/>
        <path d="M540.1 230.5l-27.7 3.9 4.8 34 27.7-3.9a5.47 5.47 0 0 0 4.7-6.3l-3.3-22.9a5.46 5.46 0 0 0-6.2-4.8z" class="prefix__y"/>
        <path d="M484 249.3l-93.7 13.3a1.9 1.9 0 01-2.1-1.6 1.9 1.9 0 011.6-2.1l93.6-13.3a1.9 1.9 0 012.1 1.6 1.76 1.76 0 01-1.5 2.1zM485.1 257.5l-93.6 13.3a1.9 1.9 0 01-2.1-1.6 1.9 1.9 0 011.6-2.1l93.6-13.3a1.9 1.9 0 012.1 1.6 1.83 1.83 0 01-1.6 2.1zM431.2 273.5l-38.6 5.5a1.9 1.9 0 01-2.1-1.6 1.9 1.9 0 011.6-2.1l38.6-5.5a1.9 1.9 0 012.1 1.6 1.77 1.77 0 01-1.6 2.1z" class="prefix__af"/>
        <path d="M537.7 248.2a6.31 6.31 0 1 1-7.1-5.4 6.3 6.3 0 0 1 7.1 5.4z" class="prefix__g"/>
        <path d="M560.2 197.4l36.1-3.6-.8-13.5-40.3 4.1-32.2-22s-3.2-9.8-10.5-10.6l-1.1 11.3 33.2 29.3 7.5 5.4zM597.3 396.9l-1.2 14.8-8.4-.6s-.4-5.7-1-14.2z" class="prefix__ag"/>
        <path d="M597.2 409.6s-5.1-2.6-9.7-1.2c-7.9 2.6-9.1 8.2-22.3 11.5-4.7 1.2-4.8 4.7 1.6 4.6 2.6 0 8.5.1 14.5.3 8.2.1 15.9.3 16.7-.7 1.5-1.4.8-10.6-.8-14.5z" class="prefix__u"/>
        <path d="M582 322.6c-.7-13.8 3.8-73 3.8-73l26.7 1-9.4 72.4-5.3 74.6H586c-1.5-21.7-3.4-62.3-4-75z" class="prefix__ah"/>
        <path d="M650.9 391.7l3.4 14.5-8.2 1.9s-2-5.3-5.1-13.4z" class="prefix__ag"/>
        <path d="M610.4 323.9c-4.8-13.1-14.4-69.3-14.4-69.3l34.1 1.2 1.5 64.6 20 71.8-11.3 3.5c-7.9-20.1-25.5-59.8-29.9-71.8z" class="prefix__ah"/>
        <path d="M625.9 420.5a39.32 39.32 0 0 0 10.3-4.5c3.2-3.8 4.7-7.2 9-10.1 4-2.8 9.5-1.8 9.5-1.8 2.6 3.2 6 11.8 5.1 13.7-.6 1.2-9.7 4.9-17.6 7.2-6 .1-11.7 0-14.5.1-6.5.1-6.5-3.3-1.8-4.6z" class="prefix__u"/>
        <path d="M592.3 176.2s-12.3-5.7-12.6-15.2c-.3-17.6.2-27.5 19.4-25.4 22.3 2.4 19.7 19.7 25.7 34.2 5.1 12.3-13.5-5.7-21.6 31.1s7.3 22.3-5.9 1.3 3.8-19.1-5-26z" class="prefix__w"/>
        <path fill="#4523ad" d="M612.3 279c-11.5 2.4-21.7 2.2-29.7 2.1 1.3-13.8 3.5-39.4 2.3-48.2-1.6-11.8-16.7-20-10.1-32.6a187 187 0 0 0 9.7-21.4s9.7-4.3 13.5-4.1c0 0 22.6-.9 25.3 8.5 2.2 8.4-2.5 35.3.9 48s10.6 23 9 36.6c-.2 1.2-3.6 7.5-20.9 11.1z"/>
        <path fill="url(#prefix__h)" d="M584.4 147.5a3.49 3.49 0 0 0 3.1-2.2 27 27 0 0 0 5.9 3.5c3.7 1.6 10.9 1.3 11.2 1.9a22.34 22.34 0 0 1 .2 3.7s4.8-1.6 4.3 1.8-3.4 3.5-3.8 5.4a40.2 40.2 0 0 0-.6 6.9c.4 4.6 3.8 6.3 6.5 7.1a18.66 18.66 0 0 1-8.1 5.1c-1.2-1.3-2.8-2.9-4-2.4a27.19 27.19 0 0 0-4.3 4s-3.1-6.2-5.9-4.7a2.11 2.11 0 0 0-1.3 1.6 3.72 3.72 0 0 1 .2-1.8c1.6-.7 6.2-2 6.8-3.2.4-.7-.2-2.2-.6-2.6a8.36 8.36 0 0 1-9.1-7.3c-1.7-7.5-.5-16.8-.5-16.8z"/>
        <path d="M594.5 182.3s2.1-4.3 4.6-4.9 7.2-3.2 7.9-5 7.5 3.8 8.2 4.3-2.8 5.3-6.8 7.9-5.1 2.6-5.1 2.6-2.9-8.9-4.4-7.9-4.4 3-4.4 3zM594.5 182.3s-3.4-4-5.1-3.7c-1.3.1-2.9 5.4-3.4 6.3s-2.1-3.8-1.6-6 8.1-4.3 8.8-4.1c.9.3-1.5 2 1.3 7.5z" class="prefix__ak"/>
        <path d="M527.4 227l7.5 1.2h.8L579 219a2.22 2.22 0 0 0 1.3-.8l26.8-34.7a6.35 6.35 0 0 1 8.8-1.4l5.8 4.2a2.23 2.23 0 0 1 .5 3.1l-.1.1-2.7 3.3-27.4 33.7a15.43 15.43 0 0 1-11 5.8l-45.4 3.8-8.8 2.2-8.8 2.3a5.52 5.52 0 0 1-6.1-2.5l-1-1.6a2.18 2.18 0 0 1 .6-2.9l6.2-4.4.1-.1 4.7-2.9a2.54 2.54 0 0 1 1.9-.2l2.4.9c.3 0 .4.1.6.1z" class="prefix__ag"/>
        <path d="M327.6 107.9H373a3.33 3.33 0 013.3 3.3v45.4a3.33 3.33 0 01-3.3 3.3h-45.4a3.33 3.33 0 01-3.3-3.3v-45.4a3.33 3.33 0 013.3-3.3zM391.8 107.9h45.4a3.33 3.33 0 013.3 3.3v45.4a3.33 3.33 0 01-3.3 3.3h-45.4a3.33 3.33 0 01-3.3-3.3v-45.4a3.33 3.33 0 013.3-3.3z" class="prefix__l"/>
        <path fill="#e2f3ff" d="M456 107.9h45.4a3.33 3.33 0 0 1 3.3 3.3v45.4a3.33 3.33 0 0 1-3.3 3.3H456a3.33 3.33 0 0 1-3.3-3.3v-45.4a3.33 3.33 0 0 1 3.3-3.3z"/>
        <g opacity="0.2">
            <path d="M459.7 162.9l7.6-44.8a3.29 3.29 0 0 1 3.8-2.7l44.8 7.6a3.29 3.29 0 0 1 2.7 3.8l-7.6 44.8a3.29 3.29 0 0 1-3.8 2.7l-44.8-7.6a3.29 3.29 0 0 1-2.7-3.8z" class="prefix__y"/>
        </g>
        <path d="M463.3 167.8L471 123a3.29 3.29 0 0 1 3.8-2.7l44.8 7.6a3.29 3.29 0 0 1 2.7 3.8l-7.6 44.8a3.29 3.29 0 0 1-3.8 2.7l-44.8-7.6a3.36 3.36 0 0 1-2.8-3.8z" class="prefix__y"/>
        <path d="M495.5 138l2 7.9c.1.3.3.5.5.5l7.8 2.1a.72.72 0 0 1 .5.9 1.38 1.38 0 0 1-.3.4l-6.9 4.3a.84.84 0 0 0-.4.7l.4 8.1a.77.77 0 0 1-.7.8.76.76 0 0 1-.5-.2l-6.2-5.2a.75.75 0 0 0-.8-.1l-7.6 2.9a.73.73 0 0 1-1-.4.64.64 0 0 1 0-.6l3-7.5a.78.78 0 0 0-.1-.8l-5.1-6.3a.79.79 0 0 1 .1-1.1.76.76 0 0 1 .5-.2l8.1.6a.91.91 0 0 0 .7-.3l4.5-6.8a.89.89 0 0 1 1.1-.2 1.76 1.76 0 0 1 .4.5z" class="prefix__g"/>
        <path d="M516.6 155s-10.1.3-10 1.4 6.3 1.2 6.3 1.2 2.2 7.3 10.1 6.4c0 0-1.9-6.5-6.4-9z" class="prefix__ag"/>
        <path d="M217.9 347.5H332.1V445.5H217.9z" class="prefix__l"/>
        <path fill="#bcbfc3" d="M217.9 347.5H332.1V364H217.9z"/>
        <circle cx="235.8" cy="355.7" r="3.2" class="prefix__g"/>
        <circle cx="251.2" cy="355.7" r="3.2" class="prefix__g"/>
        <path d="M269.7 355.7a3.2 3.2 0 1 1-3.2-3.2 3.29 3.29 0 0 1 3.2 3.2z" class="prefix__g"/>
        <path d="M283.9 382.5l-3.5 12.5-7.9 27.9c-.2.7-.4.9-1.2.9h-7.7c.6-2.3 1.2-4.4 1.8-6.5 3.2-11.2 6.3-22.5 9.5-33.7.2-.8.5-1.2 1.4-1.1zM297.2 403.3l-11.4-9.7 5.4-6.3 18.9 16-18.9 16-5.4-6.2zM249.9 403.3l11.4 9.7-5.4 6.3-18.9-16 18.9-16 5.4 6.3z" class="prefix__an"/>
    </g>
</svg>
