<svg xmlns="http://www.w3.org/2000/svg" enable-background="new 0 0 480.182 480.182" viewBox="0 0 480.182 480.182">
    <path d="M200.182 32.106c-92.784 0-168 75.216-168 168s75.216 168 168 168 168-75.216 168-168c-.101-92.742-75.258-167.899-168-168zm0 16c49.416.039 95.723 24.123 124.128 64.56l-20 20c-4.867-2.945-10.439-4.521-16.128-4.56-17.673 0-32 14.327-32 32 .028 5.695 1.595 11.276 4.536 16.152l-52.384 52.384c-9.919-6.048-22.385-6.048-32.304 0l-36.384-36.384c2.941-4.876 4.508-10.457 4.536-16.152.022-17.638-14.258-31.954-31.896-31.976-14.587-.018-27.332 9.849-30.968 23.976h-29.68c15.147-69.947 76.976-119.895 148.544-120zm104 112c0 8.837-7.163 16-16 16s-16-7.163-16-16 7.163-16 16-16 16 7.163 16 16zm-96 96c0 8.837-7.163 16-16 16s-16-7.163-16-16 7.163-16 16-16 16 7.163 16 16zm-80-80c0 8.837-7.163 16-16 16s-16-7.163-16-16 7.163-16 16-16 16 7.163 16 16zm145.854 156.906c-22.592 12.544-48.012 19.116-73.854 19.093-83.89.057-151.943-67.902-152-151.792-.004-5.414.282-10.825.856-16.208h32.28c3.637 14.085 16.317 23.945 30.864 24 5.695-.028 11.276-1.595 16.152-4.536l36.384 36.384c-2.941 4.876-4.508 10.457-4.536 16.152 0 17.673 14.327 32 32 32s32-14.327 32-32c-.028-5.695-1.595-11.276-4.536-16.152l52.384-52.384c4.876 2.941 10.457 4.508 16.152 4.536 17.673 0 32-14.327 32-32-.028-5.695-1.595-11.276-4.536-16.152l17.44-17.432c40.715 73.328 14.277 165.777-59.05 206.491z"/>
    <path d="M400.182 80.106c14.547-.055 27.227-9.914 30.864-24h49.136v-16h-49.136c-3.637-14.086-16.317-23.945-30.864-24-17.673 0-32 14.327-32 32 .028 5.695 1.595 11.276 4.536 16.152l-14.056 14.056C291.407-9.307 165.855-25.817 78.234 41.438S-25.897 234.246 41.358 321.867c63.484 82.707 179.855 102.77 267.368 46.095l24.144 24.144 11.312 11.312 64.4 64.4c16.379 16.379 42.933 16.379 59.312 0 16.379-16.379 16.379-42.933 0-59.312l-64.4-64.4-11.312-11.312-24.144-24.144c42.859-66.016 42.859-151.071 0-217.088l16-16c4.873 2.942 10.452 4.512 16.144 4.544zm0-48c8.837 0 16 7.163 16 16s-7.163 16-16 16-16-7.163-16-16 7.164-16 16-16zm56.4 387.712c10.246 10.016 10.433 26.442.417 36.688-10.016 10.246-26.442 10.433-36.688.417-.141-.137-.279-.276-.417-.417l-64.4-64.4 36.688-36.688 64.4 64.4zm-75.712-75.712l-36.688 36.688-22.144-22.144c1.128-.864 2.184-1.816 3.296-2.704s2.4-1.952 3.592-2.952c1.752-1.472 3.48-2.96 5.176-4.488.872-.8 1.704-1.6 2.56-2.4 3.28-3.072 6.456-6.248 9.528-9.528.8-.856 1.6-1.688 2.4-2.56 1.528-1.696 3.016-3.424 4.488-5.176 1.003-1.184 1.987-2.381 2.952-3.592.88-1.104 1.832-2.16 2.696-3.288l22.144 22.144zm-31.024-37.16c-2.52 3.52-5.12 6.968-7.864 10.288-.8.968-1.656 1.904-2.48 2.856-2.448 2.848-4.976 5.611-7.584 8.288-1.136 1.173-2.291 2.328-3.464 3.464-2.667 2.608-5.429 5.136-8.288 7.584-.952.8-1.888 1.672-2.856 2.48-3.32 2.744-6.768 5.344-10.288 7.864-82.816 59.165-197.915 39.992-257.08-42.824S9.95 109.031 92.766 49.866 290.681 9.873 349.846 92.69c45.781 64.082 45.781 150.174 0 214.256z"/>
</svg>
