<svg xmlns="http://www.w3.org/2000/svg" enable-background="new 0 0 512 512" viewBox="0 0 512 512">
    <path d="M149.333 224c2.729 0 5.458-1.042 7.542-3.125 4.167-4.167 4.167-10.917 0-15.083L128 176.917v-59.583c0-5.896-4.771-10.667-10.667-10.667s-10.667 4.771-10.667 10.667v64c0 2.833 1.125 5.542 3.125 7.542l32 32c2.084 2.082 4.813 3.124 7.542 3.124z"/>
    <path d="M508.875 259.125l-85.333-85.333c-2-2-4.708-3.125-7.542-3.125h-74.667v-32c0-5.896-4.771-10.667-10.667-10.667H221.712c-19.465-37.932-58.901-64-104.379-64C52.646 64 0 116.635 0 181.333c0 53.592 36.165 98.806 85.333 112.784v68.549c0 23.531 19.146 42.667 42.667 42.667h1.078C134.034 429.647 155.57 448 181.333 448s47.299-18.353 52.255-42.667h130.156C368.701 429.647 390.237 448 416 448s47.299-18.353 52.255-42.667h33.078c5.896 0 10.667-4.771 10.667-10.667v-128c0-2.833-1.125-5.541-3.125-7.541zM21.333 181.333c0-52.938 43.063-96 96-96s96 43.063 96 96-43.063 96-96 96-96-43.062-96-96zm160 245.334c-17.646 0-32-14.354-32-32s14.354-32 32-32 32 14.354 32 32-14.354 32-32 32zM320 384h-86.411c-4.956-24.314-26.492-42.667-52.255-42.667S134.035 359.686 129.079 384H128c-11.771 0-21.333-9.573-21.333-21.333v-64.54c3.518.319 7.066.54 10.667.54 64.688 0 117.333-52.635 117.333-117.333 0-11.104-1.654-21.811-4.549-32H320V384zm96 42.667c-17.646 0-32-14.354-32-32s14.354-32 32-32 32 14.354 32 32-14.354 32-32 32zM490.667 384h-22.411c-4.956-24.314-26.492-42.667-52.255-42.667S368.702 359.686 363.746 384h-22.411V192h70.25l79.083 79.083V384z"/>
    <path d="M384 224c0-5.896-4.771-10.667-10.667-10.667s-10.667 4.771-10.667 10.667v64c0 5.896 4.771 10.667 10.667 10.667h85.333c5.896 0 10.667-4.771 10.667-10.667s-4.771-10.667-10.667-10.667H384V224z"/>
</svg>
